<mxfile host="app.diagrams.net" modified="2021-07-21T18:47:55.138Z" agent="5.0 (Windows NT 10.0; Win64; x64) AppleWebKit/537.36 (KHTML, like Gecko) Chrome/91.0.4472.124 Safari/537.36 Edg/91.0.864.70" etag="dGyZKf2mXGrSNmTY_CmY" version="14.9.1" type="github">
  <diagram id="FIvKXW3m4rF-JjWIWFt3" name="Page-1">
    <mxGraphModel dx="1065" dy="490" grid="1" gridSize="10" guides="1" tooltips="1" connect="1" arrows="1" fold="1" page="1" pageScale="1" pageWidth="827" pageHeight="1169" math="0" shadow="0">
      <root>
        <mxCell id="0" />
        <mxCell id="1" parent="0" />
        <mxCell id="Ye2gH1mY8wvx8TZLGT_f-8" style="edgeStyle=orthogonalEdgeStyle;rounded=0;orthogonalLoop=1;jettySize=auto;html=1;exitX=1;exitY=0.5;exitDx=0;exitDy=0;entryX=0.5;entryY=0;entryDx=0;entryDy=0;" parent="1" source="Ye2gH1mY8wvx8TZLGT_f-1" target="Ye2gH1mY8wvx8TZLGT_f-2" edge="1">
          <mxGeometry relative="1" as="geometry" />
        </mxCell>
        <mxCell id="Ye2gH1mY8wvx8TZLGT_f-1" value="index.js&lt;br&gt;(import state)" style="rounded=0;whiteSpace=wrap;html=1;" parent="1" vertex="1">
          <mxGeometry x="250" y="50" width="81" height="30" as="geometry" />
        </mxCell>
        <mxCell id="Ye2gH1mY8wvx8TZLGT_f-9" style="edgeStyle=orthogonalEdgeStyle;rounded=0;orthogonalLoop=1;jettySize=auto;html=1;exitX=0.5;exitY=1;exitDx=0;exitDy=0;entryX=0.5;entryY=0;entryDx=0;entryDy=0;" parent="1" source="Ye2gH1mY8wvx8TZLGT_f-2" target="Ye2gH1mY8wvx8TZLGT_f-3" edge="1">
          <mxGeometry relative="1" as="geometry" />
        </mxCell>
        <mxCell id="Ye2gH1mY8wvx8TZLGT_f-2" value="App" style="rounded=0;whiteSpace=wrap;html=1;" parent="1" vertex="1">
          <mxGeometry x="436" y="90" width="70" height="30" as="geometry" />
        </mxCell>
        <mxCell id="Ye2gH1mY8wvx8TZLGT_f-12" style="edgeStyle=orthogonalEdgeStyle;rounded=0;orthogonalLoop=1;jettySize=auto;html=1;exitX=0.5;exitY=1;exitDx=0;exitDy=0;entryX=0.5;entryY=0;entryDx=0;entryDy=0;" parent="1" source="Ye2gH1mY8wvx8TZLGT_f-3" target="Ye2gH1mY8wvx8TZLGT_f-6" edge="1">
          <mxGeometry relative="1" as="geometry">
            <Array as="points">
              <mxPoint x="471" y="220" />
              <mxPoint x="526" y="220" />
            </Array>
          </mxGeometry>
        </mxCell>
        <mxCell id="Ye2gH1mY8wvx8TZLGT_f-13" style="edgeStyle=orthogonalEdgeStyle;rounded=0;orthogonalLoop=1;jettySize=auto;html=1;exitX=0.5;exitY=1;exitDx=0;exitDy=0;entryX=0.5;entryY=0;entryDx=0;entryDy=0;" parent="1" source="Ye2gH1mY8wvx8TZLGT_f-3" target="Ye2gH1mY8wvx8TZLGT_f-7" edge="1">
          <mxGeometry relative="1" as="geometry">
            <Array as="points">
              <mxPoint x="471" y="220" />
              <mxPoint x="641" y="220" />
            </Array>
          </mxGeometry>
        </mxCell>
        <mxCell id="Ye2gH1mY8wvx8TZLGT_f-41" style="edgeStyle=orthogonalEdgeStyle;rounded=0;orthogonalLoop=1;jettySize=auto;html=1;exitX=0.5;exitY=1;exitDx=0;exitDy=0;entryX=0.5;entryY=0;entryDx=0;entryDy=0;" parent="1" source="Ye2gH1mY8wvx8TZLGT_f-3" target="Ye2gH1mY8wvx8TZLGT_f-5" edge="1">
          <mxGeometry relative="1" as="geometry">
            <Array as="points">
              <mxPoint x="471" y="220" />
              <mxPoint x="411" y="220" />
            </Array>
          </mxGeometry>
        </mxCell>
        <mxCell id="Ye2gH1mY8wvx8TZLGT_f-49" style="edgeStyle=orthogonalEdgeStyle;rounded=0;orthogonalLoop=1;jettySize=auto;html=1;exitX=0.5;exitY=1;exitDx=0;exitDy=0;entryX=0.5;entryY=0;entryDx=0;entryDy=0;" parent="1" source="Ye2gH1mY8wvx8TZLGT_f-3" target="Ye2gH1mY8wvx8TZLGT_f-4" edge="1">
          <mxGeometry relative="1" as="geometry">
            <mxPoint x="280" y="260" as="targetPoint" />
            <Array as="points">
              <mxPoint x="471" y="220" />
              <mxPoint x="280" y="220" />
            </Array>
          </mxGeometry>
        </mxCell>
        <mxCell id="Ye2gH1mY8wvx8TZLGT_f-3" value="BrowserRouter" style="rounded=0;whiteSpace=wrap;html=1;" parent="1" vertex="1">
          <mxGeometry x="421" y="171" width="100" height="30" as="geometry" />
        </mxCell>
        <mxCell id="Ye2gH1mY8wvx8TZLGT_f-47" style="edgeStyle=orthogonalEdgeStyle;rounded=0;orthogonalLoop=1;jettySize=auto;html=1;exitX=0.5;exitY=1;exitDx=0;exitDy=0;entryX=0.5;entryY=0;entryDx=0;entryDy=0;" parent="1" source="Ye2gH1mY8wvx8TZLGT_f-4" target="Ye2gH1mY8wvx8TZLGT_f-28" edge="1">
          <mxGeometry relative="1" as="geometry">
            <mxPoint x="210" y="330" as="targetPoint" />
            <Array as="points">
              <mxPoint x="280" y="310" />
              <mxPoint x="185" y="310" />
            </Array>
          </mxGeometry>
        </mxCell>
        <mxCell id="Ye2gH1mY8wvx8TZLGT_f-50" style="edgeStyle=orthogonalEdgeStyle;rounded=0;orthogonalLoop=1;jettySize=auto;html=1;exitX=0.5;exitY=1;exitDx=0;exitDy=0;" parent="1" source="Ye2gH1mY8wvx8TZLGT_f-4" edge="1">
          <mxGeometry relative="1" as="geometry">
            <mxPoint x="280.04761904761904" y="360" as="targetPoint" />
          </mxGeometry>
        </mxCell>
        <mxCell id="Ye2gH1mY8wvx8TZLGT_f-4" value="Dialogs" style="rounded=0;whiteSpace=wrap;html=1;" parent="1" vertex="1">
          <mxGeometry x="240" y="271" width="80" height="29" as="geometry" />
        </mxCell>
        <mxCell id="Ye2gH1mY8wvx8TZLGT_f-21" style="edgeStyle=orthogonalEdgeStyle;rounded=0;orthogonalLoop=1;jettySize=auto;html=1;exitX=0.5;exitY=1;exitDx=0;exitDy=0;entryX=0.5;entryY=0;entryDx=0;entryDy=0;" parent="1" source="Ye2gH1mY8wvx8TZLGT_f-5" target="Ye2gH1mY8wvx8TZLGT_f-14" edge="1">
          <mxGeometry relative="1" as="geometry">
            <Array as="points">
              <mxPoint x="411" y="310" />
              <mxPoint x="346" y="310" />
            </Array>
          </mxGeometry>
        </mxCell>
        <mxCell id="Ye2gH1mY8wvx8TZLGT_f-23" style="edgeStyle=orthogonalEdgeStyle;rounded=0;orthogonalLoop=1;jettySize=auto;html=1;exitX=0.5;exitY=1;exitDx=0;exitDy=0;entryX=0.5;entryY=0;entryDx=0;entryDy=0;" parent="1" source="Ye2gH1mY8wvx8TZLGT_f-5" target="Ye2gH1mY8wvx8TZLGT_f-16" edge="1">
          <mxGeometry relative="1" as="geometry">
            <Array as="points">
              <mxPoint x="411" y="310" />
              <mxPoint x="501" y="310" />
            </Array>
          </mxGeometry>
        </mxCell>
        <mxCell id="Ye2gH1mY8wvx8TZLGT_f-26" style="edgeStyle=orthogonalEdgeStyle;rounded=0;orthogonalLoop=1;jettySize=auto;html=1;exitX=0.5;exitY=1;exitDx=0;exitDy=0;entryX=0.284;entryY=0;entryDx=0;entryDy=0;entryPerimeter=0;" parent="1" source="Ye2gH1mY8wvx8TZLGT_f-5" target="Ye2gH1mY8wvx8TZLGT_f-15" edge="1">
          <mxGeometry relative="1" as="geometry" />
        </mxCell>
        <mxCell id="Ye2gH1mY8wvx8TZLGT_f-5" value="Profile" style="rounded=0;whiteSpace=wrap;html=1;" parent="1" vertex="1">
          <mxGeometry x="371" y="271" width="80" height="30" as="geometry" />
        </mxCell>
        <mxCell id="Ye2gH1mY8wvx8TZLGT_f-6" value="NavBar" style="rounded=0;whiteSpace=wrap;html=1;" parent="1" vertex="1">
          <mxGeometry x="491" y="241" width="70" height="30" as="geometry" />
        </mxCell>
        <mxCell id="Ye2gH1mY8wvx8TZLGT_f-7" value="Header" style="rounded=0;whiteSpace=wrap;html=1;" parent="1" vertex="1">
          <mxGeometry x="601" y="241" width="80" height="30" as="geometry" />
        </mxCell>
        <mxCell id="Ye2gH1mY8wvx8TZLGT_f-14" value="ProfileInfo" style="rounded=0;whiteSpace=wrap;html=1;" parent="1" vertex="1">
          <mxGeometry x="311" y="332" width="70" height="30" as="geometry" />
        </mxCell>
        <mxCell id="Ye2gH1mY8wvx8TZLGT_f-15" value="MyPosts" style="rounded=0;whiteSpace=wrap;html=1;" parent="1" vertex="1">
          <mxGeometry x="391" y="332" width="70" height="30" as="geometry" />
        </mxCell>
        <mxCell id="Ye2gH1mY8wvx8TZLGT_f-28" value="DialogItem" style="rounded=0;whiteSpace=wrap;html=1;" parent="1" vertex="1">
          <mxGeometry x="150" y="341" width="70" height="30" as="geometry" />
        </mxCell>
        <mxCell id="Ye2gH1mY8wvx8TZLGT_f-29" value="Message" style="rounded=0;whiteSpace=wrap;html=1;" parent="1" vertex="1">
          <mxGeometry x="230" y="361" width="70" height="30" as="geometry" />
        </mxCell>
        <mxCell id="Ye2gH1mY8wvx8TZLGT_f-35" value="" style="group" parent="1" vertex="1" connectable="0">
          <mxGeometry x="471" y="332" width="70" height="40" as="geometry" />
        </mxCell>
        <mxCell id="Ye2gH1mY8wvx8TZLGT_f-16" value="Posts" style="rounded=0;whiteSpace=wrap;html=1;" parent="Ye2gH1mY8wvx8TZLGT_f-35" vertex="1">
          <mxGeometry width="60" height="30" as="geometry" />
        </mxCell>
        <mxCell id="Ye2gH1mY8wvx8TZLGT_f-17" value="Posts" style="rounded=0;whiteSpace=wrap;html=1;" parent="Ye2gH1mY8wvx8TZLGT_f-35" vertex="1">
          <mxGeometry x="5" y="5" width="60" height="30" as="geometry" />
        </mxCell>
        <mxCell id="Ye2gH1mY8wvx8TZLGT_f-18" value="Posts" style="rounded=0;whiteSpace=wrap;html=1;" parent="Ye2gH1mY8wvx8TZLGT_f-35" vertex="1">
          <mxGeometry x="10" y="10" width="60" height="30" as="geometry" />
        </mxCell>
        <mxCell id="Ye2gH1mY8wvx8TZLGT_f-42" value="props" style="text;html=1;strokeColor=none;fillColor=none;align=center;verticalAlign=middle;whiteSpace=wrap;rounded=0;rotation=0;" parent="1" vertex="1">
          <mxGeometry x="461" y="290" width="40" height="20" as="geometry" />
        </mxCell>
        <mxCell id="Ye2gH1mY8wvx8TZLGT_f-43" value="props" style="text;html=1;strokeColor=none;fillColor=none;align=center;verticalAlign=middle;whiteSpace=wrap;rounded=0;rotation=270;" parent="1" vertex="1">
          <mxGeometry x="441" y="130" width="40" height="20" as="geometry" />
        </mxCell>
        <mxCell id="Ye2gH1mY8wvx8TZLGT_f-44" value="posts rendering by a component using props data" style="text;html=1;strokeColor=none;fillColor=none;align=center;verticalAlign=middle;whiteSpace=wrap;rounded=0;rotation=0;" parent="1" vertex="1">
          <mxGeometry x="550" y="301" width="164" height="20" as="geometry" />
        </mxCell>
        <mxCell id="Ye2gH1mY8wvx8TZLGT_f-45" value="" style="shape=flexArrow;endArrow=classic;html=1;" parent="1" edge="1">
          <mxGeometry width="50" height="50" relative="1" as="geometry">
            <mxPoint x="600" y="330" as="sourcePoint" />
            <mxPoint x="550" y="360" as="targetPoint" />
          </mxGeometry>
        </mxCell>
        <mxCell id="Ye2gH1mY8wvx8TZLGT_f-51" value="props" style="text;html=1;strokeColor=none;fillColor=none;align=center;verticalAlign=middle;whiteSpace=wrap;rounded=0;rotation=270;" parent="1" vertex="1">
          <mxGeometry x="250" y="230" width="40" height="20" as="geometry" />
        </mxCell>
        <mxCell id="Ye2gH1mY8wvx8TZLGT_f-52" value="props" style="text;html=1;strokeColor=none;fillColor=none;align=center;verticalAlign=middle;whiteSpace=wrap;rounded=0;rotation=270;" parent="1" vertex="1">
          <mxGeometry x="250" y="321" width="40" height="20" as="geometry" />
        </mxCell>
        <mxCell id="Ye2gH1mY8wvx8TZLGT_f-53" value="props" style="text;html=1;strokeColor=none;fillColor=none;align=center;verticalAlign=middle;whiteSpace=wrap;rounded=0;rotation=270;" parent="1" vertex="1">
          <mxGeometry x="381" y="230" width="40" height="20" as="geometry" />
        </mxCell>
        <mxCell id="Ye2gH1mY8wvx8TZLGT_f-58" value="&lt;span style=&quot;color: rgb(0 , 0 , 0) ; font-family: &amp;#34;helvetica&amp;#34; ; font-size: 12px ; font-style: normal ; font-weight: 400 ; letter-spacing: normal ; text-align: center ; text-indent: 0px ; text-transform: none ; word-spacing: 0px ; background-color: rgb(248 , 249 , 250) ; display: inline ; float: none&quot;&gt;BLL side&lt;br&gt;(data for components in UI)&lt;/span&gt;" style="text;whiteSpace=wrap;html=1;" parent="1" vertex="1">
          <mxGeometry x="170" y="110" width="150" height="40" as="geometry" />
        </mxCell>
        <mxCell id="Ye2gH1mY8wvx8TZLGT_f-59" value="&lt;div style=&quot;text-align: center&quot;&gt;&lt;span&gt;&lt;font face=&quot;helvetica&quot;&gt;UI side&lt;/font&gt;&lt;/span&gt;&lt;/div&gt;" style="text;whiteSpace=wrap;html=1;" parent="1" vertex="1">
          <mxGeometry x="341" y="150" width="50" height="30" as="geometry" />
        </mxCell>
        <mxCell id="Ye2gH1mY8wvx8TZLGT_f-61" style="edgeStyle=orthogonalEdgeStyle;rounded=0;orthogonalLoop=1;jettySize=auto;html=1;exitX=1;exitY=0.5;exitDx=0;exitDy=0;entryX=0;entryY=0.5;entryDx=0;entryDy=0;" parent="1" source="Ye2gH1mY8wvx8TZLGT_f-60" target="Ye2gH1mY8wvx8TZLGT_f-1" edge="1">
          <mxGeometry relative="1" as="geometry" />
        </mxCell>
        <mxCell id="Ye2gH1mY8wvx8TZLGT_f-60" value="state.js&lt;br&gt;(export state)" style="rounded=0;whiteSpace=wrap;html=1;" parent="1" vertex="1">
          <mxGeometry x="130" y="50" width="81" height="30" as="geometry" />
        </mxCell>
        <mxCell id="Ye2gH1mY8wvx8TZLGT_f-38" value="state data in props" style="text;html=1;strokeColor=none;fillColor=none;align=center;verticalAlign=middle;whiteSpace=wrap;rounded=0;" parent="1" vertex="1">
          <mxGeometry x="353" y="49" width="129" height="20" as="geometry" />
        </mxCell>
        <mxCell id="5kTBVl-lcOyZ4sefNkmL-1" value="" style="endArrow=none;dashed=1;html=1;dashPattern=1 3;strokeWidth=2;" edge="1" parent="1">
          <mxGeometry width="50" height="50" relative="1" as="geometry">
            <mxPoint x="140" y="340" as="sourcePoint" />
            <mxPoint x="350" y="120" as="targetPoint" />
          </mxGeometry>
        </mxCell>
        <mxCell id="5kTBVl-lcOyZ4sefNkmL-2" value="" style="endArrow=none;dashed=1;html=1;dashPattern=1 3;strokeWidth=2;" edge="1" parent="1">
          <mxGeometry width="50" height="50" relative="1" as="geometry">
            <mxPoint x="350" y="120" as="sourcePoint" />
            <mxPoint x="350" y="40" as="targetPoint" />
          </mxGeometry>
        </mxCell>
        <mxCell id="5kTBVl-lcOyZ4sefNkmL-3" value="" style="endArrow=none;dashed=1;html=1;dashPattern=1 3;strokeWidth=2;" edge="1" parent="1">
          <mxGeometry width="50" height="50" relative="1" as="geometry">
            <mxPoint x="140" y="391" as="sourcePoint" />
            <mxPoint x="140" y="341" as="targetPoint" />
          </mxGeometry>
        </mxCell>
      </root>
    </mxGraphModel>
  </diagram>
</mxfile>
